<?xml version="1.0" encoding="utf-8"?>
<!-- Generator: Adobe Illustrator 25.0.1, SVG Export Plug-In . SVG Version: 6.00 Build 0)  -->
<svg version="1.0" id="Layer_1" xmlns="http://www.w3.org/2000/svg" xmlns:xlink="http://www.w3.org/1999/xlink" x="0px" y="0px"
	 viewBox="0 0 245 169" style="enable-background:new 0 0 245 169;" xml:space="preserve">
<style type="text/css">
	.st0{fill:#00B4BC;}
	.st1{fill:none;}
</style>
<path class="st0" d="M75.4,54.1c-0.4,0-1.3,0.6-3.7,2.5c-0.9,0.3-1.6,0-2.7,1.5c-6.7,9.2-11.4,38.2-17.1,48.4
	c-1.1-0.4-1-22.5-1.6-37.8c0.2-2.2,0.3-4.4,0.3-6.6c-0.1-3.1-0.6-5.3-3.9-6.1c-5-1.3-12.1,1-12.2,6c-0.3,16.8,1.1,33.5,4.3,50
	c0.9,4.4,5.1,5.1,9.6,4.9C62.8,114.5,65,97.2,69,82.7c1.6-5.6,5.3-22.8,7.1-27.7C76.2,54.7,75.9,54.1,75.4,54.1 M159.2,68
	c-1.8-2.6-5.9-2.8-9.1-2.9c0.3-2.6,0.5-5.4,0.8-8.2c0.3-1.1,0.2-2.3-0.3-3.3c0.8-1.9-0.2-2.4-1.1-2.7c-2.4-0.8-6.6-0.9-7.7,2.1
	c-1.2,3.8-2,7.8-2.4,11.7c-2.2,0.2-6.4,0.4-6.5,1.3c0,3.5,3.4,4.7,5.8,4.8c-0.7,5.8-1.5,14-2.3,21.4c-5.9,8-12,15.1-12.5,13.9
	c-1-2.1,2.4-14.3,0-19.2c-1.4-2.6-7.4-3.4-9.9-2.4c-4.7,1.8-8.2,9.2-9.8,11.5c0.6-3.1,1.9-9.5,2.3-12.2c0.3-2-2.3-3.9-4.1-2.2
	c-2.1,0.8-4.8,0-5.4,2.9c-0.7,3.4-1.2,6.8-1.7,10.2c-4,5.8-10.5,14.8-12.4,13.3s2.2-17.5,2.6-20.4c1.2-2.3-1.6-5.2-4.6-5.2
	c-1.2,0-2.1-0.4-3.1,0.2c-3.3,1.9-5.9,13.1-5.5,18.9c0.4,7.9,5.2,9.5,7.2,10.2c5.8,2.1,10.8-2.2,15-7.8c-0.1,1.4-0.1,2.8-0.1,4.2
	c0.1,1.7,1.9,1,3.9,1.9c2.2,1.9,3.8,0.9,4.9-1.7c3-7,5.5-12.6,10.9-18.8c2,0.7-2.4,17.2,0.6,20.5c6.1,6.7,15.4-2.3,21-9.5
	c-0.3,3.3-0.4,6.6-0.1,9.9c0,0.8,0.4,1.5,1,2c1,0.5,2.7,0.9,3.2,1.2c1.1,0.5,1.1,0.8,2.8,0.7c0.6,0,1.4-0.6,1.6-2
	c2.2-15,5.4-41.3,5.4-41.3c1-0.1,6.1-0.8,7.5-0.8C157.3,70,159.4,68.3,159.2,68 M195.5,86.6c-10.7,3.3-13.1,23.3-10.3,21.6
	c4.5-2.8,8.1-9.6,10.3-21.4L195.5,86.6 M159.4,95c8.2-0.8,9.5-6.7,9.4-9.8C164.8,84.8,160.8,89.9,159.4,95 M210.2,58.7
	c-5.4,29.8-7.8,53.1-7.5,57.3c0,0.6,0.1,1.6-0.8,1.6c-1.1,0-4.9,1-6.9,1c-1.4,0-2.4-4.7-1.8-11.5c-3.2,3.8-6.8,6.2-9.6,5.9
	c-3.8-0.4-5.4-5.1-5.6-9.6c-7.1,8.2-17.2,10.6-21.7,7.6c-3.6-2.5-4.9-6.6-5-10.6c-0.1-7.8,7.8-19.2,16.8-19.2h0.2
	c2.6,0.2,5.1,4.8,5.4,7.7c0.4,5.8-4.7,12.9-14.8,10.3c0.1,3.4,1.9,6,6.2,5.8c5.3-0.2,9.2-4.1,13.7-9.8l0,0c2.5-8.8,9-16.2,17.9-17.1
	c0.9-6.9,2.2-13.8,3.8-20.7c0.2-1.3,2.2-2.1,3.3-1.8c2.1-1.7,6.5-2.7,6.8,0.5C210.5,57,210.5,57.8,210.2,58.7 M79.8,71.8
	c-0.1-2.4,5.2-4,6.9-4c2.7,0,3.1,2.1,3.2,4.6c0.1,2.2-2.2,4.2-4.7,4.2C81.3,76.6,79.9,71.9,79.8,71.8"/>
<rect x="26" y="45" class="st1" width="193" height="79"/>
</svg>
